<svg xmlns="http://www.w3.org/2000/svg" viewBox="0 0 90 110">
  <defs>
    <linearGradient id="kBlock" x1="0" y1="0" x2="0" y2="1">
      <stop offset="0%" stop-color="#D8B4FE"/>
      <stop offset="50%" stop-color="#C084FC"/>
      <stop offset="100%" stop-color="#A855F7"/>
    </linearGradient>
    <linearGradient id="kHl" x1="0" y1="0" x2="0" y2="1">
      <stop offset="0%" stop-color="#EDE9FE" stop-opacity="0.8"/>
      <stop offset="100%" stop-color="#EDE9FE" stop-opacity="0"/>
    </linearGradient>
    <linearGradient id="kSh" x1="0" y1="0" x2="0" y2="1">
      <stop offset="0%" stop-color="#5B21B6" stop-opacity="0"/>
      <stop offset="100%" stop-color="#5B21B6" stop-opacity="0.6"/>
    </linearGradient>
    <filter id="kGlow" x="-100%" y="-100%" width="300%" height="300%">
      <feGaussianBlur stdDeviation="2.5"/>
    </filter>
  </defs>
  <rect width="90" height="110" rx="20" fill="#0F0618"/>
  <rect x="4" y="8" width="10" height="90" rx="3" fill="url(#kBlock)"/>
  <rect x="4" y="8" width="10" height="3" rx="1" fill="url(#kHl)"/>
  <rect x="4" y="93" width="10" height="5" rx="1" fill="url(#kSh)"/>
  <rect x="18" y="40" width="10" height="30" rx="3" fill="url(#kBlock)"/>
  <rect x="32" y="22" width="10" height="34" rx="3" fill="url(#kBlock)"/>
  <rect x="46" y="8" width="10" height="22" rx="3" fill="url(#kBlock)"/>
  <rect x="46" y="8" width="10" height="3" rx="1" fill="url(#kHl)"/>
  <rect x="32" y="62" width="10" height="36" rx="3" fill="url(#kBlock)"/>
  <rect x="46" y="76" width="10" height="22" rx="3" fill="url(#kBlock)"/>
  <rect x="46" y="93" width="10" height="5" rx="1" fill="url(#kSh)"/>
  <circle cx="68" cy="92" r="9" fill="#84CC16" opacity="0.3" filter="url(#kGlow)"/>
  <circle cx="68" cy="92" r="6" fill="#84CC16"/>
  <circle cx="68" cy="92" r="3.5" fill="#A3E635"/>
  <circle cx="67" cy="91" r="1.4" fill="#FFFFFF" opacity="0.9"/>
</svg>
